<svg width="79" height="43" fill="none" xmlns="http://www.w3.org/2000/svg"><path d="M9.73 25.629v3.02c0 .857-.71 1.612-1.622 1.612a1.596 1.596 0 01-1.622-1.611v-4.784H0v4.784c0 4.38 3.598 7.955 8.108 7.955 4.459 0 8.107-3.575 8.107-7.955v-3.172c0-7.956-9.729-9.567-9.729-14.4V7.955c0-.856.71-1.612 1.622-1.612.912 0 1.621.705 1.621 1.611v4.784h6.486V7.955C16.165 3.575 12.567 0 8.108 0 3.598 0 0 3.575 0 7.955v3.173c0 7.955 9.73 9.566 9.73 14.5zm6.435 14.149H0v3.172h16.165v-3.172z" fill="#00ADEE"/><path d="M20.168 7.955c0-4.38 3.649-7.955 8.108-7.955 4.46 0 8.108 3.575 8.108 7.955v4.784h-6.487V7.955c0-.855-.71-1.61-1.621-1.61-.912 0-1.622.704-1.622 1.61V28.65c0 .856.71 1.611 1.622 1.611.912 0 1.621-.705 1.621-1.611v-4.784h6.487v4.784c0 4.38-3.649 7.955-8.108 7.955-4.46 0-8.108-3.575-8.108-7.955V7.956zM72.514 0v19.083L67.649 0h-6.435v36.605h6.435V17.522l4.865 19.083H79V0h-6.486zm-21.03 0h-6.486l-6.435 36.605h6.486l.861-6.344h4.662l.912 6.344h6.486L51.485 0zM46.62 23.866l1.621-12.638 1.622 12.638H46.62z" fill="#000"/></svg>